<?xml version="1.0" encoding="utf-8"?>
<!-- Generator: Adobe Illustrator 20.0.0, SVG Export Plug-In . SVG Version: 6.00 Build 0)  -->
<svg id="Layer_1" data-name="Layer 1" xmlns="http://www.w3.org/2000/svg" viewBox="0 0 513.38 168.55">
    <defs>
        <style>
            .cls-1 {
                fill: #6497bb;
            }
            .cls-2 {
                fill: #f8971f;
            }
            .cls-3 {
                fill: #887a5c;
            }
        </style>
    </defs>
    <title>ss_logocolor</title><path
        class="cls-1"
        d="M359.24,125.45a.5.5,0,1,0,0-1h0c-16.72.14-36.22,5.38-36.22,11.81s19.89,11.82,36.93,11.82a68.88,68.88,0,0,0,18.19-2.27s2.78-.69,2.78-1-2.17-.59-2.92-.43a85.31,85.31,0,0,1-15.3,1.52c-16.16,0-29.26-4.59-29.26-10.26C333.42,130.35,344.7,126,359.24,125.45Zm4.07,28.14c27,0,52.58-7.95,52.58-17.67s-25.94-17.6-52.94-17.6c-18.53,0-34.65,3.73-42.94,9.2h0c-.84.59-1.9,1.27-1.16,1.47a1.43,1.43,0,0,0,1.57-.16c8.24-4.26,22.85-7.09,39.51-7.09,25.74,0,46.61,6.76,46.61,15.11,0,8-19,14.48-43.13,15.06-.31,0-.53.36-.53.83C362.84,153.58,363.31,153.58,363.31,153.58ZM361,164.39c24.77,0,46.35-5.36,57.76-13.27h0c1.57-1,3.69-2.75,2.88-2.89a3.32,3.32,0,0,0-1.93,0c-.15.1-1.76,1-1.95,1.1-11.34,6-30.67,10-52.62,10-34.94,0-63.27-10-63.27-22.39,0-11.81,26.8-22.5,64.69-22.47,3.64,0-3.85-2.31-6.06-2.31-36.7,0-68.58,10.69-68.58,24.83C291.94,151.36,324.36,164.39,361,164.39Zm-4.32-58.14c-1.31.74-2,1.4-.72,1.39,48.87-.5,84.46,15,84.46,32.63,0,18-36.42,32.66-81.34,32.66-33.88,0-63.4-8.26-76.61-21.24-.41-.4-1.58,0-2,.44,16.43,16.21,49.87,23.23,79.42,23.83,27.57.56,55-4.78,73.48-13.16,12.44-6.37,19.9-14.48,19.9-23.32C453.27,131.51,444.34,106.24,356.7,106.24Z"
        transform="translate(-8.67 -7.45)"/><path class="cls-2" d="M63.22,23.39c3.84,0,6.33-2.71,6.33-6.67s-2.49-6.55-6.33-6.55-6.33,2.94-6.33,6.78,2.6,6.44,6.33,6.44" transform="translate(-8.67 -7.45)"/><path
        class="cls-2"
        d="M162.88,34.91c-10.85,0-20.34,6.67-20.34,17.51,0,7.57,4.18,12.54,10.06,15-5.65,2.83-8.81,6.21-8.81,9.83,0,4.75,2.6,7.34,9.72,8.93v.45c-8.48,1.24-14,6.33-14,11.53,0,6.55,8.25,11.86,22.26,11.86,18.08,0,26.78-8.81,26.78-17.74,0-10.06-7.34-13.9-21.58-13.9h-5.76c-9.6,0-11.52-2-11.52-4.29s2.15-4,6.1-5.54a30.71,30.71,0,0,0,7.12.91C173.5,69.49,183,62.93,183,52a15.62,15.62,0,0,0-8.25-14c1.24-2.37,3.73-4.75,6.21-5.2,0,3.39,2.26,5.42,4.63,5.42a4.32,4.32,0,0,0,4.29-4.41c0-3.05-2.26-5.43-6.21-5.43-5.31,0-8.59,4.07-11,8.59a24.7,24.7,0,0,0-9.83-2m.45,32c-6.33,0-10.73-4.29-10.73-14.69s3.5-14.8,9.72-14.8c6.44,0,10.73,5.54,10.73,14.8,0,10.4-3.61,14.69-9.72,14.69m1.36,40.68c-12.54,0-17.29-5-17.29-10.74,0-4.86,3.5-7.68,9.72-9.26h9.38c12,0,15.37,3.28,15.37,7.91,0,7.12-7.57,12.09-17.17,12.09"
        transform="translate(-8.67 -7.45)"/><path
        class="cls-2"
        d="M225.95,59.79v-1l.11-2.6c.9-13.11,6-18.87,13.11-18.87,8.7,0,14.32,7.68,13.3,18.53L226,61.69c0-.63-.05-1.27-.05-1.91m35.73,14.27A1.11,1.11,0,0,0,260.57,73a1.09,1.09,0,0,0-.83.39h0c-4.63,5.76-9.27,9.72-16,9.72-10.16,0-16.1-8.17-17.45-18.58l31.89-5.26a3.74,3.74,0,0,0,2.79-3.34c-.3-11.3-7.31-21.29-21-21.29-13.9,0-24.41,11.86-24.41,27.34,0,14.92,9.15,26.33,24.41,26.33,11.41,0,17.29-6.44,21.47-13.45l0,0a1.09,1.09,0,0,0,.28-.72"
        transform="translate(-8.67 -7.45)"/><path
        class="cls-2"
        d="M140.23,84.86c-6.67-.11-7.75-.9-7.75-4.18V50.39c0-10.17-5.2-15.48-13.22-15.48-7.57,0-14.46,4.18-20,10.62V35.25l-17,.44h0a1.19,1.19,0,0,0,0,2.38h0c6.55.11,7.75,2.27,7.75,5.66v37c0,3.28-1.2,4.07-7.75,4.18a1.24,1.24,0,1,0,0,2.49h23.86a1.24,1.24,0,0,0,0-2.49h0c-5.65-.11-6.62-.9-6.62-4.18v-32c3.16-4.52,7.8-7.91,13.11-7.91,7.12,0,10.4,3.62,10.4,13.11V80.68c0,3.28-1,4.07-6.73,4.18h0a1.24,1.24,0,0,0,0,2.48h24a1.24,1.24,0,1,0,0-2.49"
        transform="translate(-8.67 -7.45)"/><path
        class="cls-2"
        d="M75.89,84.84h-.05c-6.85-.12-7.42-.91-7.42-4.18V35.25l-17.63.45h0a1.19,1.19,0,0,0,0,2.39h.06c6.51.12,8.09,2.27,8.09,5.65V80.68c0,3.27-1.69,4.06-8.2,4.18h-.05a1.25,1.25,0,1,0,0,2.5H75.89a1.25,1.25,0,1,0,0-2.5"
        transform="translate(-8.67 -7.45)"/><path
        class="cls-2"
        d="M216.55,84.84h0c-6.63-.12-9.2-.91-9.2-4.18V7.45l-18.64.45v0a1.17,1.17,0,0,0,0,2.33v0c7.46.23,9.15,1.92,9.15,5.65V80.68c0,3.27-1.43,4.06-7.94,4.17h0a1.26,1.26,0,0,0-1.25,1.24,1.24,1.24,0,0,0,1.23,1.25h26.71a1.25,1.25,0,0,0,0-2.5"
        transform="translate(-8.67 -7.45)"/><path
        class="cls-2"
        d="M8.67,88.25h1.92l3.62-3.73a29.43,29.43,0,0,0,13.34,3.73c11.75,0,17.51-7.91,17.51-17.17,0-8.14-4.75-12.09-15.71-15.14-9.15-2.6-13.22-5.2-13.22-9.95,0-5.08,4-8.7,9.38-8.7,6.1,0,9.6,4.18,14.69,13.11h2.37V34.57H40.64l-2.26,3.05A24.07,24.07,0,0,0,27.2,34.57C16,34.57,9,41.35,9,50.85c0,7.68,4.52,11.41,15.82,14.69,10.51,3.05,13.78,5.65,13.78,11.07,0,4.29-3.28,8.81-9.83,8.81-7.34,0-11.64-4.29-17.74-15H8.67Z"
        transform="translate(-8.67 -7.45)"/><path
        class="cls-3"
        d="M500,47.91a4.45,4.45,0,0,0,3.7,1.6c2.23,0,4-1.34,4-3.59,0-4.18-5.72-2.42-5.72-5.36,0-.72.52-1.77,2.26-1.77a2.43,2.43,0,0,1,2.07,1l1.28-1.16a4,4,0,0,0-3.34-1.33c-2.79,0-3.93,1.88-3.93,3.24,0,4.52,5.72,2.87,5.72,5.54A2.15,2.15,0,0,1,503.77,48a2.89,2.89,0,0,1-2.46-1.24ZM510,49.22h1.57V39.69h0l3.92,9.53h1l3.92-9.53h0v9.53h1.57V37.62h-2.34l-3.65,8.78H516l-3.69-8.78H510Z"
        transform="translate(-8.67 -7.45)"/><path
        class="cls-3"
        d="M340,62.3c0-15.8,11.25-27.16,25.68-27.16,14.89,0,25.45,10.91,25.45,26.71S380,89.11,365.71,89.11C350.6,89.11,340,78.21,340,62.3m40.45-.23c0-17.39-6.25-24.21-15.34-24.21s-14.32,6.82-14.32,24.21,6.25,24.2,15.34,24.2c8.86,0,14.32-6.93,14.32-24.2"
        transform="translate(-8.67 -7.45)"/><path
        class="cls-3"
        d="M461.83,60.66v-1l.11-2.6c.9-13.11,6-18.87,13.11-18.87,8.7,0,14.32,7.68,13.3,18.53l-26.47,5.88c0-.63-.05-1.26-.05-1.91m35.73,14.27a1.1,1.1,0,0,0-1.93-.72h0c-4.63,5.76-9.26,9.72-16,9.72-10.16,0-16.1-8.17-17.44-18.59L494,60.07a3.74,3.74,0,0,0,2.79-3.34c-.3-11.3-7.32-21.29-21-21.29-13.9,0-24.41,11.86-24.41,27.34,0,14.92,9.15,26.33,24.41,26.33,11.41,0,17.29-6.44,21.47-13.45l0,0a1.09,1.09,0,0,0,.28-.72"
        transform="translate(-8.67 -7.45)"/><path
        class="cls-3"
        d="M451,85.72c-6.67-.11-7.75-.9-7.75-4.18V51.26c0-10.17-5.2-15.48-13.22-15.48-7.57,0-14.46,4.18-20,10.62V36.12l-17,.44h0a1.19,1.19,0,0,0,0,2.38h0c6.55.11,7.75,2.27,7.75,5.66v37c0,3.28-1.2,4.07-7.75,4.18a1.24,1.24,0,0,0,0,2.49h23.86a1.24,1.24,0,0,0,0-2.49h0c-5.65-.11-6.62-.9-6.62-4.18v-32c3.16-4.52,7.8-7.91,13.11-7.91,7.12,0,10.4,3.62,10.4,13.11V81.54c0,3.28-1,4.07-6.73,4.18h0a1.24,1.24,0,0,0,0,2.48h24a1.24,1.24,0,1,0,0-2.49"
        transform="translate(-8.67 -7.45)"/><path
        class="cls-3"
        d="M341.9,78.7a1.18,1.18,0,0,0-2.1-.72h0c-2.94,4.52-5.67,6.39-8.84,6.39-4.63,0-6.78-2.71-6.78-9.27V40.87h13.51a2,2,0,1,0,0-4.07H324.18V18l-9.38,4.07V36.46l-7.27,2.37V41h7.16V75.22c0,9.49,4,14.35,12.09,14.35,6.78,0,11-3,14.94-10.23h0a1.17,1.17,0,0,0,.21-.64"
        transform="translate(-8.67 -7.45)"/><path
        class="cls-3"
        d="M267.63,89.11h1.92l3.62-3.73a29.43,29.43,0,0,0,13.33,3.73c11.75,0,17.51-7.91,17.51-17.17,0-8.14-4.75-12.09-15.71-15.14-9.15-2.6-13.22-5.2-13.22-9.95,0-5.08,4-8.7,9.38-8.7,6.1,0,9.61,4.18,14.69,13.11h2.37V35.44h-1.92l-2.26,3.05a24.07,24.07,0,0,0-11.19-3.05C275,35.44,268,42.22,268,51.71c0,7.68,4.52,11.41,15.82,14.69,10.51,3.05,13.79,5.65,13.79,11.07,0,4.29-3.28,8.81-9.83,8.81-7.35,0-11.64-4.29-17.74-15h-2.37Z"
        transform="translate(-8.67 -7.45)"/></svg>
